<?xml version="1.0" encoding="UTF-8" standalone="no"?><!DOCTYPE svg PUBLIC "-//W3C//DTD SVG 1.1//EN" "http://www.w3.org/Graphics/SVG/1.1/DTD/svg11.dtd"><svg width="100%" height="100%" viewBox="0 0 50 50" version="1.1" xmlns="http://www.w3.org/2000/svg" xmlns:xlink="http://www.w3.org/1999/xlink" xml:space="preserve" xmlns:serif="http://www.serif.com/" style="fill-rule:evenodd;clip-rule:evenodd;stroke-linejoin:round;stroke-miterlimit:2;"><path d="M24.634,-0c13.582,0 24.634,11.05 24.634,24.634c0,13.584 -11.052,24.634 -24.634,24.634c-13.584,0 -24.634,-11.05 -24.634,-24.634c0,-13.584 11.05,-24.634 24.634,-24.634Zm20.24,24.634c0,-11.161 -9.08,-20.24 -20.24,-20.24c-11.161,0 -20.24,9.08 -20.24,20.24c0,11.161 9.08,20.24 20.24,20.24c11.161,0 20.24,-9.08 20.24,-20.24Zm-22.546,-14.317l4.394,0l0,17.482l-4.394,0l0,-17.482Zm2.035,19.98c1.993,0 3.611,1.618 3.611,3.611c0,1.993 -1.618,3.611 -3.611,3.611c-1.993,0 -3.611,-1.618 -3.611,-3.611c0,-1.993 1.618,-3.611 3.611,-3.611Z" style="fill:#fff;"/></svg>