<?xml version="1.0" encoding="UTF-8" standalone="no"?><!DOCTYPE svg PUBLIC "-//W3C//DTD SVG 1.1//EN" "http://www.w3.org/Graphics/SVG/1.1/DTD/svg11.dtd"><svg width="100%" height="100%" viewBox="0 0 2225 2225" version="1.1" xmlns="http://www.w3.org/2000/svg" xmlns:xlink="http://www.w3.org/1999/xlink" xml:space="preserve" xmlns:serif="http://www.serif.com/" style="fill-rule:evenodd;clip-rule:evenodd;stroke-linejoin:round;stroke-miterlimit:2;"><path d="M1657.691,633.327l-37.114,35.057l-170.036,-168.249l35.305,-36.538c55.202,-54.746 116.455,-54.746 171.658,0c56.138,55.548 56.138,114.306 0.187,169.73m-996.077,954.563l-175.4,34.687l35.055,-173.557c62.563,28.33 111.715,76.965 140.345,138.87m855.669,-817.545l-736.282,728.421c-39.733,-70.916 -97.992,-128.563 -169.662,-167.879l736.157,-728.544l169.786,168.002Zm243.39,-408.834c-51.086,-50.549 -118.202,-78.385 -188.998,-78.385c-70.796,0 -137.913,27.836 -188.998,78.385l-986.346,975.918l-2.308,2.345l-72.73,361.865l-23.017,106.899l451.038,-90.235l22.705,-4.506l988.654,-978.264c106.039,-104.862 106.039,-269.161 0,-374.024" style="fill:#fff;fill-rule:nonzero;"/></svg>