<?xml version="1.0" encoding="UTF-8" standalone="no"?><!DOCTYPE svg PUBLIC "-//W3C//DTD SVG 1.1//EN" "http://www.w3.org/Graphics/SVG/1.1/DTD/svg11.dtd"><svg width="100%" height="100%" viewBox="0 0 2225 2225" version="1.1" xmlns="http://www.w3.org/2000/svg" xmlns:xlink="http://www.w3.org/1999/xlink" xml:space="preserve" xmlns:serif="http://www.serif.com/" style="fill-rule:evenodd;clip-rule:evenodd;stroke-linejoin:round;stroke-miterlimit:2;"><path d="M1112.5,306.833c448.943,0 814.224,361.442 814.224,805.667c0,444.225 -365.281,805.667 -814.224,805.667c-448.943,0 -814.224,-361.442 -814.224,-805.667l0,-11.58l157.16,0l0,11.58c0,358.53 294.793,650.159 657.064,650.159c362.271,0 657.064,-291.628 657.064,-650.159c0,-358.53 -294.793,-650.159 -657.064,-650.159c-228.852,0 -435.301,114.613 -556.147,307.709l233.467,0l0,155.509l-491.544,0l0,-486.378l157.16,0l0,196.073c153.148,-206.33 396.044,-328.421 657.064,-328.421Zm-78.567,264.696l157.16,0l0,463.217l334.384,0l0,155.509l-491.544,0l0,-618.726Z" style="fill:#fff;"/></svg>