<?xml version="1.0" encoding="UTF-8" standalone="no"?><!DOCTYPE svg PUBLIC "-//W3C//DTD SVG 1.1//EN" "http://www.w3.org/Graphics/SVG/1.1/DTD/svg11.dtd"><svg width="100%" height="100%" viewBox="0 0 2225 2225" version="1.1" xmlns="http://www.w3.org/2000/svg" xmlns:xlink="http://www.w3.org/1999/xlink" xml:space="preserve" xmlns:serif="http://www.serif.com/" style="fill-rule:evenodd;clip-rule:evenodd;stroke-linejoin:round;stroke-miterlimit:2;"><path d="M1423.604,1387.118l-0.231,404.671l-1062.173,0.618l0.776,-1359.764l1062.173,-0.618l-0.262,459.855l313.299,-314.031c33.39,-33.47 76.89,-51.552 122.496,-50.919c45.606,0.634 88.576,19.917 121.003,54.302c67.31,71.331 65.745,181.605 -3.562,251.038l-553.518,554.847Zm-121.259,-373.411l0.26,-456.38l-819.228,0.477l-0.633,1109.302l819.228,-0.477l0.103,-181.042l-277.226,53.776l15.845,-71.543l50.298,-242.226l1.509,-1.554l209.843,-210.334Zm-319.207,388.605l-27.478,126.365l-354.625,0.206l0.072,-126.349l382.031,-0.222Zm49.845,-239.853l-25.046,126.363l-406.764,0.237l0.072,-126.349l431.738,-0.251Zm163.194,-227.046l-0.072,126.349l-594.803,0.346l0.072,-126.349l594.803,-0.346Zm0.137,-239.87l-0.072,126.349l-594.803,0.346l0.072,-126.349l594.803,-0.346Zm715.442,67.206c36.571,-36.699 37.13,-76.136 1.496,-113.922c-35.039,-37.238 -74.497,-37.787 -110.579,-1.536l-23.091,24.208l107.932,114.448l24.242,-23.197Zm-91.753,90.708l-107.774,-114.28l-481.16,482.397c45.794,27.029 82.774,66.242 107.694,114.196l481.239,-482.313Zm-558.995,541.063c-17.854,-41.806 -49.053,-74.889 -89.086,-94.463l-24.235,116.175l113.321,-21.711Z" style="fill:#fff;"/></svg>