<?xml version="1.0" encoding="UTF-8" standalone="no"?><!DOCTYPE svg PUBLIC "-//W3C//DTD SVG 1.1//EN" "http://www.w3.org/Graphics/SVG/1.1/DTD/svg11.dtd"><svg width="100%" height="100%" viewBox="0 0 1124 313" version="1.1" xmlns="http://www.w3.org/2000/svg" xmlns:xlink="http://www.w3.org/1999/xlink" xml:space="preserve" xmlns:serif="http://www.serif.com/" style="fill-rule:evenodd;clip-rule:evenodd;stroke-linejoin:round;stroke-miterlimit:2;"><path id="Rounded-Rectangle-1-copy-3" serif:id="Rounded Rectangle 1 copy 3" d="M1122.404,161.775l-134.804,-0.378c0,0 0.191,4.342 0.764,16.612c0.573,12.27 3.819,28.692 14.894,43.416c11.074,14.724 28.259,25.106 56.518,26.806c28.259,1.698 58.045,-16.234 58.045,-16.234l-1.527,20.386c0,0 -8.783,6.23 -25.586,12.459c-16.803,6.229 -55.372,8.683 -87.069,-7.173c-31.696,-15.857 -48.113,-53.238 -47.353,-90.609c0.764,-37.564 13.175,-69.278 41.624,-87.588c28.45,-18.311 89.17,-16.422 110.364,10.949c21.194,27.372 14.13,71.354 14.13,71.354Zm-31.314,-34.355c-0.955,-8.872 -4.391,-23.407 -16.039,-33.223c-11.648,-9.816 -40.861,-12.459 -62.247,0c-21.385,12.458 -24.058,50.212 -24.058,50.212l102.726,-3.776c0,0 0.573,-4.342 -0.382,-13.213Zm-221.141,27.938c30.359,8.871 58.236,20.953 55.754,57.385c-2.482,36.432 -32.269,57.008 -74.848,57.008c-42.58,0 -57.282,-13.969 -57.282,-13.969l4.582,-32.468c0,0 0,0.755 13.365,11.326c13.366,10.571 28.26,15.29 43.153,16.234c14.893,0.944 42.389,-9.627 39.333,-36.621c-3.055,-26.993 -25.013,-31.335 -58.427,-41.529c-33.414,-10.193 -44.371,-29.303 -42.771,-51.345c2.1,-28.944 18.149,-44.885 46.972,-52.1c41.772,-10.456 77.14,5.663 77.14,5.663l-6.111,45.682l-11.074,-0.377c0,0 -1.147,-9.25 -5.729,-18.5c-4.583,-9.25 -16.994,-16.422 -28.641,-16.611c-11.646,-0.189 -41.243,4.719 -41.624,29.448c-0.387,25.102 15.847,31.901 46.208,40.774Zm-171.116,0.377c30.36,8.872 58.237,20.953 55.755,57.386c-2.483,36.431 -32.269,57.008 -74.849,57.008c-42.579,0 -57.282,-13.969 -57.282,-13.969l4.582,-32.468c0,0 0,0.755 13.366,11.327c13.366,10.571 28.26,15.29 43.152,16.234c14.894,0.944 42.389,-9.627 39.334,-36.621c-3.056,-26.994 -25.014,-31.335 -58.428,-41.529c-33.415,-10.193 -44.37,-29.303 -42.77,-51.345c2.1,-28.944 18.148,-44.884 46.972,-52.1c41.772,-10.456 77.139,5.663 77.139,5.663l-6.11,45.682l-11.075,-0.378c0,0 -1.146,-9.25 -5.728,-18.5c-4.582,-9.249 -16.994,-16.422 -28.641,-16.611c-11.648,-0.189 -41.243,4.72 -41.624,29.448c-0.387,25.103 15.848,31.902 46.207,40.774Zm-154.661,109.486l1.512,-17.026l-0.02,-0.019l0,-12.417l-7.99,10.581l0.02,0.003l-0.123,0.135l-0.561,0.742l-0.181,0.034c-2.832,2.898 -12.441,12.079 -25.499,17.589c-15.656,6.607 -40.67,6.418 -62.246,-1.134c-21.576,-7.55 -30.933,-26.426 -31.314,-47.569c-0.382,-21.141 8.019,-36.998 31.314,-46.059c23.294,-9.06 90.505,-19.631 90.505,-19.631c0,0 0.191,-3.776 -0.382,-16.234c-0.573,-12.459 -3.437,-22.652 -9.928,-30.58c-6.493,-7.928 -18.139,-16.046 -47.354,-12.459c-29.213,3.587 -35.895,27.938 -35.895,27.938l-10.311,0.755l-5.346,-27.938c11.837,-11.326 17.566,-16.8 41.624,-21.896c24.058,-5.097 58.427,-4.342 79.05,11.704c20.621,16.045 18.712,55.498 18.712,55.498l-1.146,35.866c-0.226,9.781 -0.594,31.076 0.13,42.599c0.957,15.192 1.285,25.345 7.586,31.407c1.493,1.143 3.751,2.477 7.178,3.766c8.63,3.247 20.239,3.776 20.239,3.776l-0.382,10.571l-59.192,0Zm-6.294,-93.455c0,0 -42.419,4.011 -68.63,13.26c-19.98,7.05 -26.659,14.679 -28.227,28.767c-1.585,14.244 7.641,30.308 28.409,33.439c21.035,3.171 47.411,-1.265 58.781,-18.959c11.27,-17.54 9.667,-56.507 9.667,-56.507Z" style="fill:#fff;"/><path id="Rounded-Rectangle-1-copy-31" serif:id="Rounded Rectangle 1 copy 3" d="M299.318,210.88l-295.22,0c-2.265,0 -4.099,-1.877 -4.099,-4.191l0,-17.81c0,-2.315 1.833,-4.191 4.099,-4.191l295.22,0c2.264,0 4.1,1.876 4.1,4.191l0,17.81c0,2.314 -1.835,4.191 -4.1,4.191Zm0,-52.383l-295.22,0c-2.265,0 -4.099,-1.876 -4.099,-4.19l0,-17.81c0,-2.315 1.833,-4.191 4.099,-4.191l295.22,0c2.264,0 4.1,1.876 4.1,4.191l0,17.81c0,2.313 -1.835,4.19 -4.1,4.19Zm-198.863,75.43l101.481,0c2.265,0 4.101,1.876 4.101,4.191l0,17.81c0,2.315 -1.835,4.19 -4.101,4.19l-101.481,0c-2.265,0 -4.101,-1.875 -4.101,-4.19l0,-17.81c0,-2.315 1.835,-4.191 4.101,-4.191Zm0,52.382l101.481,0c2.265,0 4.101,1.876 4.101,4.191l0,17.81c0,2.315 -1.835,4.19 -4.101,4.19l-101.481,0c-2.265,0 -4.101,-1.875 -4.101,-4.19l0,-17.81c0,-2.315 1.835,-4.191 4.101,-4.191Z" style="fill:#fff;"/><path id="Ellipse-1-copy-3" serif:id="Ellipse 1 copy 3" d="M150.266,0c28.746,0 52.051,23.299 52.051,52.04c0,28.741 -23.305,52.04 -52.051,52.04c-28.747,0 -52.05,-23.299 -52.05,-52.04c0,-28.741 23.303,-52.04 52.05,-52.04Z" style="fill:#f5d700;"/></svg>