<?xml version="1.0" encoding="UTF-8" standalone="no"?>
<!DOCTYPE svg PUBLIC "-//W3C//DTD SVG 1.1//EN" "http://www.w3.org/Graphics/SVG/1.1/DTD/svg11.dtd">
<svg width="100%" height="100%" viewBox="0 0 916 288" version="1.1" xmlns="http://www.w3.org/2000/svg" xmlns:xlink="http://www.w3.org/1999/xlink" xml:space="preserve" xmlns:serif="http://www.serif.com/" style="fill-rule:evenodd;clip-rule:evenodd;stroke-linejoin:round;stroke-miterlimit:2;">
    <g id="Rectangle-1-copy-3" serif:id="Rectangle 1 copy 3" transform="matrix(1.30661,0,0,1.30661,-395.155,-561.842)">
        <path d="M327.104,470.034C347.282,445.584 377.82,430 411.999,430C446.178,430 476.717,445.584 496.895,470.034L327.104,470.034ZM313.956,490.051L510.043,490.051C516.274,502.255 520.293,515.776 521.571,530.085L302.428,530.085C303.706,515.776 307.725,502.255 313.956,490.051ZM302.445,550.102L521.553,550.102C520.25,564.416 516.203,577.937 509.944,590.136L314.055,590.136C307.796,577.937 303.749,564.416 302.445,550.102ZM327.264,610.154L496.734,610.154C476.555,634.492 446.088,649.994 411.999,649.994C377.911,649.994 347.443,634.492 327.264,610.154Z" style="fill:rgb(0,179,255);"/>
    </g>
    <g id="SCELEST" transform="matrix(1.30661,0,0,1.30661,-395.155,-561.843)">
        <path d="M609.817,596.118C605.25,598.711 599.842,600.008 593.594,600.008C586.286,600.008 580.182,598.711 575.279,596.118C570.376,593.525 566.674,589.516 564.175,584.089C561.674,578.665 560.281,571.628 559.993,562.985L582.057,559.671C582.151,564.666 582.609,568.7 583.427,571.772C584.243,574.847 585.396,577.055 586.888,578.399C588.377,579.745 590.18,580.416 592.296,580.416C594.986,580.416 596.742,579.504 597.559,577.679C598.375,575.856 598.785,573.933 598.785,571.916C598.785,567.115 597.632,563.057 595.324,559.744C593.017,556.43 589.892,553.094 585.951,549.731L575.856,540.944C571.433,537.198 567.708,532.949 564.679,528.195C561.651,523.441 560.137,517.559 560.137,510.548C560.137,500.657 563.068,493.094 568.934,487.859C574.797,482.625 582.778,480.007 592.873,480.007C599.121,480.007 604.144,481.065 607.943,483.177C611.739,485.29 614.624,488.052 616.595,491.46C618.565,494.87 619.912,498.472 620.633,502.264C621.354,506.059 621.762,509.683 621.859,513.141L599.65,515.878C599.554,512.42 599.337,509.42 599.002,506.874C598.664,504.331 597.967,502.361 596.911,500.968C595.852,499.577 594.218,498.879 592.007,498.879C589.603,498.879 587.848,499.887 586.744,501.904C585.637,503.921 585.085,505.938 585.085,507.955C585.085,512.276 586.117,515.806 588.186,518.543C590.252,521.28 592.967,524.139 596.334,527.114L605.996,535.614C611.09,539.935 615.392,544.834 618.903,550.308C622.411,555.782 624.166,562.553 624.166,570.62C624.166,576.094 622.916,581.064 620.417,585.53C617.916,589.996 614.383,593.525 609.817,596.118ZM684.806,595.47C679.95,598.495 673.147,600.008 664.4,600.008C655.554,600.008 648.559,598.398 643.417,595.182C638.273,591.965 634.643,587.452 632.529,581.64C630.414,575.831 629.357,568.988 629.357,561.112L629.357,519.047C629.357,510.98 630.414,504.043 632.529,498.231C634.643,492.421 638.273,487.931 643.417,484.761C648.559,481.592 655.554,480.007 664.4,480.007C673.053,480.007 679.806,481.425 684.662,484.257C689.515,487.091 692.954,491.053 694.973,496.142C696.992,501.233 698.001,507.09 698.001,513.717L698.001,523.801L672.764,523.801L672.764,512.132C672.764,509.827 672.643,507.619 672.404,505.506C672.163,503.394 671.466,501.641 670.313,500.248C669.159,498.856 667.187,498.159 664.4,498.159C661.707,498.159 659.713,498.879 658.415,500.32C657.117,501.76 656.299,503.561 655.964,505.722C655.626,507.883 655.459,510.165 655.459,512.564L655.459,567.451C655.459,570.044 655.675,572.421 656.108,574.582C656.541,576.742 657.406,578.471 658.704,579.768C660.002,581.064 661.899,581.712 664.4,581.712C667.091,581.712 669.015,581.017 670.169,579.624C671.322,578.232 672.043,576.432 672.332,574.221C672.62,572.013 672.764,569.756 672.764,567.451L672.764,555.206L698.001,555.206L698.001,565.29C698.001,571.916 697.014,577.848 695.045,583.081C693.073,588.317 689.66,592.445 684.806,595.47ZM759.145,598.279L706.364,598.279L706.364,481.592L758.856,481.592L758.856,499.167L732.177,499.167L732.177,528.123L752.511,528.123L752.511,545.986L732.177,545.986L732.177,580.848L759.145,580.848L759.145,598.279ZM817.693,598.279L765.056,598.279L765.056,481.592L790.87,481.592L790.87,580.848L817.693,580.848L817.693,598.279ZM874.8,598.279L822.019,598.279L822.019,481.592L874.512,481.592L874.512,499.167L847.833,499.167L847.833,528.123L868.167,528.123L868.167,545.986L847.833,545.986L847.833,580.848L874.8,580.848L874.8,598.279ZM927.941,596.118C923.373,598.711 917.965,600.008 911.717,600.008C904.41,600.008 898.305,598.711 893.402,596.118C888.499,593.525 884.797,589.516 882.298,584.089C879.797,578.665 878.404,571.628 878.116,562.985L900.18,559.671C900.275,564.666 900.732,568.7 901.55,571.772C902.366,574.847 903.52,577.055 905.011,578.399C906.501,579.745 908.303,580.416 910.419,580.416C913.11,580.416 914.865,579.504 915.683,577.679C916.498,575.856 916.909,573.933 916.909,571.916C916.909,567.115 915.755,563.057 913.447,559.744C911.14,556.43 908.015,553.094 904.074,549.731L893.979,540.944C889.556,537.198 885.831,532.949 882.803,528.195C879.774,523.441 878.26,517.559 878.26,510.548C878.26,500.657 881.192,493.094 887.057,487.859C892.92,482.625 900.901,480.007 910.996,480.007C917.244,480.007 922.267,481.065 926.066,483.177C929.863,485.29 932.747,488.052 934.719,491.46C936.688,494.87 938.035,498.472 938.756,502.264C939.478,506.059 939.885,509.683 939.982,513.141L917.774,515.878C917.677,512.42 917.461,509.42 917.125,506.874C916.787,504.331 916.091,502.361 915.034,500.968C913.975,499.577 912.341,498.879 910.131,498.879C907.726,498.879 905.971,499.887 904.867,501.904C903.761,503.921 903.209,505.938 903.209,507.955C903.209,512.276 904.24,515.806 906.309,518.543C908.375,521.28 911.091,524.139 914.457,527.114L924.119,535.614C929.214,539.935 933.515,544.834 937.026,550.308C940.534,555.782 942.29,562.553 942.29,570.62C942.29,576.094 941.039,581.064 938.54,585.53C936.039,589.996 932.506,593.525 927.941,596.118ZM985.552,598.279L959.594,598.279L959.594,500.752L942,500.752L942,481.592L1003,481.592L1003,500.752L985.552,500.752L985.552,598.279Z"/>
    </g>
</svg>
