<?xml version="1.0" encoding="UTF-8" standalone="no"?><!DOCTYPE svg PUBLIC "-//W3C//DTD SVG 1.1//EN" "http://www.w3.org/Graphics/SVG/1.1/DTD/svg11.dtd"><svg width="100%" height="100%" viewBox="0 0 125 125" version="1.1" xmlns="http://www.w3.org/2000/svg" xmlns:xlink="http://www.w3.org/1999/xlink" xml:space="preserve" xmlns:serif="http://www.serif.com/" style="fill-rule:evenodd;clip-rule:evenodd;stroke-linejoin:round;stroke-miterlimit:2;"><circle cx="62.5" cy="62.5" r="62.5" style="fill:#159fdb;"/><path d="M77.069,79.22l-29.141,0c0.201,-0.698 0.301,-1.365 0.301,-2.021l0,-22.049c0,-7.465 5.811,-13.734 13.229,-14.273l0.002,0c0.225,-0.015 0.446,-0.01 0.664,-0.005l0.821,0.007c7.624,0.228 13.824,6.938 13.824,14.959l0,21.36c0,0.657 0.098,1.323 0.299,2.021m-12.548,7.778c0,1.132 -0.887,2.021 -2.021,2.021c-1.134,0 -2.021,-0.889 -2.021,-2.021c0,-1.134 0.887,-2.021 2.021,-2.021c1.134,0 2.021,0.887 2.021,2.021m22.906,-7.778l-2.879,0c-1.154,0 -2.021,-0.87 -2.021,-2.021l0,-21.36c0,-9.216 -6.169,-17.556 -14.721,-19.988c0.012,-0.098 0.022,-0.198 0.022,-0.299c0,-2.937 -2.391,-5.328 -5.328,-5.328c-2.937,0 -5.328,2.391 -5.328,5.328c0,0.1 0.007,0.198 0.022,0.296c-8.687,2.396 -14.721,10.28 -14.721,19.302l0,22.049c0,1.151 -0.87,2.021 -2.021,2.021l-2.879,0l0,5.757l17.448,0c-0.201,0.698 -0.299,1.362 -0.299,2.021c0,4.287 3.489,7.778 7.778,7.778c4.29,0 7.778,-3.491 7.778,-7.778c0,-0.659 -0.1,-1.323 -0.301,-2.021l17.45,0l0,-5.757Z" style="fill:#fff;fill-rule:nonzero;"/></svg>