<?xml version="1.0" encoding="UTF-8" standalone="no"?><!DOCTYPE svg PUBLIC "-//W3C//DTD SVG 1.1//EN" "http://www.w3.org/Graphics/SVG/1.1/DTD/svg11.dtd"><svg width="100%" height="100%" viewBox="0 0 125 125" version="1.1" xmlns="http://www.w3.org/2000/svg" xmlns:xlink="http://www.w3.org/1999/xlink" xml:space="preserve" xmlns:serif="http://www.serif.com/" style="fill-rule:evenodd;clip-rule:evenodd;stroke-linejoin:round;stroke-miterlimit:2;"><g><circle cx="62.5" cy="62.5" r="62.5" style="fill:#159fdb;"/><path d="M35.43,85.05l-0,-45.1l24.909,-0l6.268,5.424l22.963,0l0,39.675l-54.14,0Zm4.826,-40.271l0,35.443l44.483,0l-0,-30.019l-20.811,-0l-6.085,-5.424l-17.588,0Zm15.57,22.874c-1.494,-1.607 -2.311,-3.647 -2.311,-5.792c0,-4.73 3.848,-8.578 8.578,-8.578c4.73,0 8.578,3.848 8.578,8.578c0,2.145 -0.818,4.185 -2.311,5.792c2.741,2.02 4.366,5.2 4.366,8.591l0,0.36l-4.828,0l0,-0.36c0,-3.255 -2.55,-5.804 -5.804,-5.804c-3.255,0 -5.804,2.55 -5.804,5.804l0,0.36l-4.828,0l0,-0.36c0,-3.39 1.625,-6.571 4.366,-8.591Zm2.517,-5.792c0,2.102 1.648,3.75 3.75,3.75c2.104,0 3.75,-1.648 3.75,-3.75c0,-2.102 -1.646,-3.75 -3.75,-3.75c-2.102,0 -3.75,1.648 -3.75,3.75Z" style="fill:#fff;"/></g></svg>