<?xml version="1.0" encoding="UTF-8" standalone="no"?><!DOCTYPE svg PUBLIC "-//W3C//DTD SVG 1.1//EN" "http://www.w3.org/Graphics/SVG/1.1/DTD/svg11.dtd"><svg width="100%" height="100%" viewBox="0 0 50 50" version="1.1" xmlns="http://www.w3.org/2000/svg" xmlns:xlink="http://www.w3.org/1999/xlink" xml:space="preserve" xmlns:serif="http://www.serif.com/" style="fill-rule:evenodd;clip-rule:evenodd;stroke-linejoin:round;stroke-miterlimit:2;"><path d="M24.634,0c-13.582,0 -24.634,11.05 -24.634,24.634c-0,13.584 11.052,24.634 24.634,24.634c13.584,0 24.634,-11.05 24.634,-24.634c0,-13.584 -11.05,-24.634 -24.634,-24.634Zm-20.24,24.634c0,-11.161 9.08,-20.24 20.24,-20.24c11.161,0 20.24,9.08 20.24,20.24c0,11.161 -9.08,20.24 -20.24,20.24c-11.161,0 -20.24,-9.08 -20.24,-20.24Zm32.327,-6.168l-3.36,-3.36l-12.337,12.337l-5.118,-5.118l-3.36,3.36l8.478,8.478l15.697,-15.697Z" style="fill:#fff;"/></svg>