<?xml version="1.0" encoding="UTF-8" standalone="no"?><!DOCTYPE svg PUBLIC "-//W3C//DTD SVG 1.1//EN" "http://www.w3.org/Graphics/SVG/1.1/DTD/svg11.dtd"><svg width="100%" height="100%" viewBox="0 0 47 47" version="1.1" xmlns="http://www.w3.org/2000/svg" xmlns:xlink="http://www.w3.org/1999/xlink" xml:space="preserve" xmlns:serif="http://www.serif.com/" style="fill-rule:evenodd;clip-rule:evenodd;stroke-linejoin:round;stroke-miterlimit:2;"><path d="M23.438,-0c12.922,0 23.438,10.514 23.438,23.438c0,12.924 -10.515,23.438 -23.438,23.438c-12.924,0 -23.438,-10.514 -23.438,-23.438c0,-12.924 10.514,-23.438 23.438,-23.438Zm19.257,23.438c0,-10.618 -8.639,-19.257 -19.257,-19.257c-10.618,0 -19.257,8.639 -19.257,19.257c0,10.618 8.639,19.257 19.257,19.257c10.618,0 19.257,-8.639 19.257,-19.257Zm-17.167,-13.622l0,11.531l11.593,0l0,4.181l-11.593,0l0,11.49l-4.181,0l0,-11.49l-11.57,0l0,-4.181l11.57,0l0,-11.531l4.181,0Z" style="fill:#fff;"/></svg>