<?xml version="1.0" encoding="UTF-8" standalone="no"?><!DOCTYPE svg PUBLIC "-//W3C//DTD SVG 1.1//EN" "http://www.w3.org/Graphics/SVG/1.1/DTD/svg11.dtd"><svg width="100%" height="100%" viewBox="0 0 63 63" version="1.1" xmlns="http://www.w3.org/2000/svg" xmlns:xlink="http://www.w3.org/1999/xlink" xml:space="preserve" xmlns:serif="http://www.serif.com/" style="fill-rule:evenodd;clip-rule:evenodd;stroke-linejoin:round;stroke-miterlimit:2;"><path d="M9.141,9.14c12.186,-12.186 32.016,-12.188 44.204,-0c12.187,12.187 12.186,32.018 -0,44.204c-12.188,12.188 -32.016,12.188 -44.204,0c-12.187,-12.187 -12.187,-32.016 0,-44.204Zm40.262,3.942c-10.013,-10.013 -26.306,-10.013 -36.319,0c-10.013,10.013 -10.014,26.306 -0,36.319c10.013,10.013 26.306,10.013 36.319,-0c10.013,-10.013 10.014,-26.306 0,-36.319Zm-29.035,3.344l10.874,10.874l10.933,-10.933l3.942,3.942l-10.933,10.933l10.835,10.835l-3.942,3.942l-10.835,-10.835l-10.911,10.911l-3.942,-3.942l10.911,-10.911l-10.874,-10.874l3.942,-3.942Z" style="fill:#fff;"/></svg>