<?xml version="1.0" encoding="UTF-8" standalone="no"?><!DOCTYPE svg PUBLIC "-//W3C//DTD SVG 1.1//EN" "http://www.w3.org/Graphics/SVG/1.1/DTD/svg11.dtd"><svg width="100%" height="100%" viewBox="0 0 534 534" version="1.1" xmlns="http://www.w3.org/2000/svg" xmlns:xlink="http://www.w3.org/1999/xlink" xml:space="preserve" xmlns:serif="http://www.serif.com/" style="fill-rule:evenodd;clip-rule:evenodd;stroke-linejoin:round;stroke-miterlimit:2;"><path d="M321.621,72.661l104.202,0l0,397.018l-318.312,0l0,-397.018l104.202,0c1.561,-19.009 17.832,-34.006 37.608,-34.006l34.693,0c19.775,0 36.064,14.997 37.608,34.006Zm-69.265,5.951l0,28.055l28.622,0l0,-28.055l-28.622,0Zm69.387,68.012l-110.152,0l0,-34.006l-63.315,0l0,317.104l236.783,0l0,-317.104l-63.315,-0l0,34.006Zm-107.983,146.976c-12.611,-13.296 -19.515,-30.18 -19.515,-47.931c0,-39.141 32.49,-70.987 72.423,-70.987c39.932,0 72.423,31.846 72.423,70.987c0,17.751 -6.904,34.635 -19.515,47.931c23.141,16.714 36.862,43.034 36.862,71.089l0,2.976l-40.765,0l0,-2.976c0,-26.933 -21.527,-48.033 -49.004,-48.033c-27.477,0 -49.004,21.101 -49.004,48.033l0,2.976l-40.765,0l0,-2.976c0,-28.055 13.721,-54.375 36.862,-71.089Zm21.25,-47.931c0,17.394 13.912,31.03 31.658,31.03c17.763,0 31.658,-13.636 31.658,-31.03c0,-17.394 -13.895,-31.03 -31.658,-31.03c-17.746,0 -31.658,13.636 -31.658,31.03Z" style="fill:#fff;"/></svg>