<?xml version="1.0" encoding="UTF-8" standalone="no"?><!DOCTYPE svg PUBLIC "-//W3C//DTD SVG 1.1//EN" "http://www.w3.org/Graphics/SVG/1.1/DTD/svg11.dtd"><svg width="100%" height="100%" viewBox="0 0 56 55" version="1.1" xmlns="http://www.w3.org/2000/svg" xmlns:xlink="http://www.w3.org/1999/xlink" xml:space="preserve" xmlns:serif="http://www.serif.com/" style="fill-rule:evenodd;clip-rule:evenodd;stroke-linejoin:round;stroke-miterlimit:2;"><path d="M48.541,12.577l-1.325,1.259l-6.071,-6.042l1.261,-1.312c1.971,-1.966 4.158,-1.966 6.129,0c2.005,1.995 2.005,4.105 0.007,6.096m-35.567,34.282l-6.263,1.246l1.252,-6.233c2.234,1.017 3.989,2.764 5.011,4.987m30.553,-29.361l-26.29,26.16c-1.419,-2.547 -3.499,-4.617 -6.058,-6.029l26.286,-26.164l6.063,6.034Zm8.691,-14.683c-1.824,-1.815 -4.221,-2.815 -6.749,-2.815c-2.528,0 -4.924,1 -6.749,2.815l-35.219,35.048l-0.082,0.084l-2.597,12.996l-0.822,3.839l16.105,-3.241l0.811,-0.162l35.302,-35.133c3.786,-3.766 3.786,-9.666 0,-13.432" style="fill:#fff;fill-rule:nonzero;"/></svg>