<?xml version="1.0" encoding="UTF-8" standalone="no"?><!DOCTYPE svg PUBLIC "-//W3C//DTD SVG 1.1//EN" "http://www.w3.org/Graphics/SVG/1.1/DTD/svg11.dtd"><svg width="100%" height="100%" viewBox="0 0 59 59" version="1.1" xmlns="http://www.w3.org/2000/svg" xmlns:xlink="http://www.w3.org/1999/xlink" xml:space="preserve" xmlns:serif="http://www.serif.com/" style="fill-rule:evenodd;clip-rule:evenodd;stroke-linejoin:round;stroke-miterlimit:2;"><path d="M37.52,41.939c-3.93,3 -8.837,4.783 -14.158,4.783c-12.893,0 -23.361,-10.468 -23.361,-23.361c0,-12.893 10.468,-23.361 23.361,-23.361c12.893,0 23.361,10.468 23.361,23.361c0,5.321 -1.783,10.229 -4.783,14.158l16.183,16.183l-4.419,4.419l-16.183,-16.183Zm-14.158,-35.689c-9.444,0 -17.111,7.667 -17.111,17.111c0,9.444 7.667,17.111 17.111,17.111c9.444,0 17.111,-7.667 17.111,-17.111c0,-9.444 -7.667,-17.111 -17.111,-17.111Z" style="fill:#fff;"/></svg>