<?xml version="1.0" encoding="UTF-8" standalone="no"?><!DOCTYPE svg PUBLIC "-//W3C//DTD SVG 1.1//EN" "http://www.w3.org/Graphics/SVG/1.1/DTD/svg11.dtd"><svg width="100%" height="100%" viewBox="0 0 125 125" version="1.1" xmlns="http://www.w3.org/2000/svg" xmlns:xlink="http://www.w3.org/1999/xlink" xml:space="preserve" xmlns:serif="http://www.serif.com/" style="fill-rule:evenodd;clip-rule:evenodd;stroke-linejoin:round;stroke-miterlimit:2;"><circle cx="62.5" cy="62.5" r="62.5" style="fill:#159fdb;"/><path d="M75.69,36.08l10.044,0l0,57.701l-46.468,0l0,-57.701l10.578,0l0,-4.862l5.362,0l0,4.862l15.123,0l0,-4.862l5.362,0l0,4.862Zm4.729,5.314l-35.84,-0l0,47.073l35.84,0l-0,-47.073Zm-4.647,35.849l0,5.362l-26.021,0l0,-5.362l26.021,0Zm-0,-19.808l0,5.362l-26.021,0l0,-5.362l26.021,0Zm0,9.631l0,5.362l-26.021,0l0,-5.362l26.021,0Zm-0,-19.835l0,5.362l-26.021,0l0,-5.362l26.021,0Z" style="fill:#fff;"/></svg>