<?xml version="1.0" encoding="UTF-8" standalone="no"?><!DOCTYPE svg PUBLIC "-//W3C//DTD SVG 1.1//EN" "http://www.w3.org/Graphics/SVG/1.1/DTD/svg11.dtd"><svg width="100%" height="100%" viewBox="0 0 95 124" version="1.1" xmlns="http://www.w3.org/2000/svg" xmlns:xlink="http://www.w3.org/1999/xlink" xml:space="preserve" xmlns:serif="http://www.serif.com/" style="fill-rule:evenodd;clip-rule:evenodd;stroke-linejoin:round;stroke-miterlimit:2;"><path d="M63.258,9.774l30.786,0l0,114.111l-94.044,0l0,-114.111l30.786,0c0.461,-5.464 5.269,-9.774 11.111,-9.774l10.25,0c5.843,0 10.655,4.31 11.111,9.774Zm0.036,21.258l-32.544,0l0,-9.774l-18.706,0l0,91.142l69.957,0l0,-91.142l-18.706,0l0,9.774Zm-19.023,58.553l-19.795,-15.514l7.698,-8.931l10.429,8.173l18.409,-21.358l9.366,7.34l-26.107,30.289Zm-1.478,-78.1l0,8.064l8.456,0l0,-8.064l-8.456,0Z" style="fill:#fff;"/></svg>