<?xml version="1.0" encoding="UTF-8" standalone="no"?><!DOCTYPE svg PUBLIC "-//W3C//DTD SVG 1.1//EN" "http://www.w3.org/Graphics/SVG/1.1/DTD/svg11.dtd"><svg width="100%" height="100%" viewBox="0 0 53 63" version="1.1" xmlns="http://www.w3.org/2000/svg" xmlns:xlink="http://www.w3.org/1999/xlink" xml:space="preserve" xmlns:serif="http://www.serif.com/" style="fill-rule:evenodd;clip-rule:evenodd;stroke-linejoin:round;stroke-miterlimit:2;"><path d="M36.833,7.7l15.4,0l0,6.032l-2.567,0l0,40.619c0,4.494 -3.655,8.149 -8.149,8.149l-30.801,0c-4.494,0 -8.149,-3.655 -8.149,-8.149l0,-40.619l-2.567,0l0,-6.032l15.4,0l0,-2.118c0,-1.545 0.575,-3.006 1.573,-4.007c1.004,-1.001 2.461,-1.576 4.009,-1.576l10.267,0c1.545,0 3.006,0.575 4.007,1.576c1.001,1.001 1.576,2.461 1.576,4.007l0,2.118Zm6.802,6.032l-35.036,0l0,40.619c0,1.168 0.95,2.118 2.118,2.118l30.801,0c1.168,0 2.118,-0.95 2.118,-2.118l0,-40.619Zm-10.269,6.804l6.032,0l0,29.132l-6.032,0l0,-29.132Zm-20.534,0l6.032,0l0,29.132l-6.032,0l0,-29.132Zm10.267,0l6.032,0l0,29.132l-6.032,0l0,-29.132Zm-1.667,-14.504l0,1.668l9.369,0l0,-1.668l-9.369,0Z" style="fill:#fff;"/></svg>