<?xml version="1.0" encoding="UTF-8" standalone="no"?><!DOCTYPE svg PUBLIC "-//W3C//DTD SVG 1.1//EN" "http://www.w3.org/Graphics/SVG/1.1/DTD/svg11.dtd"><svg width="100%" height="100%" viewBox="0 0 534 534" version="1.1" xmlns="http://www.w3.org/2000/svg" xmlns:xlink="http://www.w3.org/1999/xlink" xml:space="preserve" xmlns:serif="http://www.serif.com/" style="fill-rule:evenodd;clip-rule:evenodd;stroke-linejoin:round;stroke-miterlimit:2;"><path d="M456.61,356.895l4.404,20.675l-48.828,0l0,74.103l-95.11,0l0,-74.103l-48.828,0l4.419,-20.734l22.452,-118.046c3.041,-17.355 11.952,-32.472 25.283,-43.261c-11.833,-11.812 -18.303,-26.929 -18.303,-42.861c0,-34.117 28.054,-61.876 62.533,-61.876c34.479,0 62.533,27.759 62.533,61.876c0,15.932 -6.47,31.049 -18.303,42.861c13.33,10.775 22.242,25.877 25.283,42.831l0.045,0.919l22.422,117.616Zm-91.98,-177.18c15.322,0 27.335,-11.886 27.335,-27.048c0,-15.176 -12.012,-27.048 -27.335,-27.048c-15.322,0 -27.335,11.871 -27.335,27.048c0,15.161 12.012,27.048 27.335,27.048Zm12.357,163.026l41.594,0l-18.213,-95.785l-0.449,0l-0.464,-2.594c-2.951,-17.844 -16.97,-29.819 -34.824,-29.819c-17.854,0 -31.873,11.975 -34.854,29.789l0,2.594l-0.884,0.015l-18.213,95.8l41.594,0l0,74.103l24.714,0l0,-74.103Zm-161.385,-148.289c19.996,14.554 31.828,37.496 31.828,61.95l0,84.981l-29.956,14.806l0,95.474l-95.11,0l0,-95.459l-29.956,-14.821l0,-84.981c0,-24.454 11.833,-47.396 31.828,-61.95c-10.904,-11.59 -16.85,-26.321 -16.85,-41.794c0,-34.117 28.054,-61.861 62.533,-61.861c34.479,0 62.533,27.744 62.533,61.861c0,15.473 -5.961,30.204 -16.85,41.794Zm-73.018,-41.794c0,15.176 11.997,27.062 27.335,27.062c15.322,0 27.335,-11.886 27.335,-27.062c0,-15.161 -12.012,-27.048 -27.335,-27.048c-15.337,0 -27.335,11.886 -27.335,27.048Zm39.692,181.804l29.956,-14.821l0,-63.239c0,-23.076 -18.992,-41.868 -42.313,-41.868c-23.336,0 -42.313,18.792 -42.313,41.868l0,63.239l29.956,14.821l0,82.388l24.714,0l0,-82.388Z" style="fill:#fff;"/></svg>