<?xml version="1.0" encoding="UTF-8" standalone="no"?><!DOCTYPE svg PUBLIC "-//W3C//DTD SVG 1.1//EN" "http://www.w3.org/Graphics/SVG/1.1/DTD/svg11.dtd"><svg width="100%" height="100%" viewBox="0 0 534 534" version="1.1" xmlns="http://www.w3.org/2000/svg" xmlns:xlink="http://www.w3.org/1999/xlink" xml:space="preserve" xmlns:serif="http://www.serif.com/" style="fill-rule:evenodd;clip-rule:evenodd;stroke-linejoin:round;stroke-miterlimit:2;"><path d="M426.348,332.349c0,6.743 -5.34,12.042 -12.17,12.042c-6.83,0 -12.17,-5.298 -12.17,-12.042c0,-6.743 5.34,-12.042 12.17,-12.042c6.83,0 12.17,5.298 12.17,12.042m5.163,-42.811l0,-0.978c0,-33.6 -27.629,-60.939 -61.586,-60.939c-33.957,0 -61.586,27.339 -61.586,60.939l0,72.981c0,30.783 -25.313,55.83 -56.423,55.83c-31.125,0 -56.423,-25.047 -56.423,-55.83l0,-28.375c49.239,-8.042 82.769,-46.314 84.17,-47.934l4.337,-4.831l0,-137.802c0,-20.186 -13.733,-38.154 -33.529,-44.11c-5.591,-10.407 -16.226,-16.829 -28.057,-16.829c-17.687,0 -32.084,14.246 -32.084,31.747c0,17.501 14.397,31.747 32.084,31.747c9.219,0 17.76,-3.883 23.823,-10.728c1.991,2.16 3.098,5.036 3.098,8.174l0,123.921c-7.346,7.181 -37.173,34.082 -71.174,34.082c-34.016,0 -63.828,-26.901 -71.174,-34.082l0,-123.921c0,-3.138 1.106,-6.014 3.098,-8.174c6.063,6.846 14.604,10.728 23.823,10.728c17.687,0 32.084,-14.246 32.084,-31.747c0,-17.501 -14.397,-31.747 -32.084,-31.747c-11.83,0 -22.481,6.422 -28.071,16.829c-19.781,5.955 -33.515,23.923 -33.515,44.11l0,137.802l4.307,4.802c1.431,1.649 34.946,39.92 84.2,47.963l0,28.375c0,49.7 40.861,90.131 91.088,90.131c50.228,0 91.088,-40.431 91.088,-90.131l0,-72.981c0,-14.932 11.816,-26.638 26.921,-26.638c15.09,0 26.921,11.706 26.921,26.638l0,0.978c-17.716,7.108 -29.502,24.084 -29.502,42.811c0,25.543 21.006,46.343 46.835,46.343c25.829,0 46.835,-20.8 46.835,-46.343c0,-18.727 -11.786,-35.702 -29.502,-42.811" style="fill:#fff;fill-rule:nonzero;"/></svg>